<?xml version="1.0" encoding="UTF-8"?>
<svg xmlns="http://www.w3.org/2000/svg" xmlns:xlink="http://www.w3.org/1999/xlink" viewBox="0 0 30 30" width="30px" height="30px">
<g id="surface759211">
<path style=" stroke:none;fill-rule:nonzero;fill:rgb(94.509804%,76.862746%,5.882353%);fill-opacity:1;" d="M 6 4 C 4.894531 4 4 4.894531 4 6 L 4 20 C 4 21.105469 4.894531 22 6 22 L 20 22 C 21.105469 22 22 21.105469 22 20 L 22 6 C 22 4.894531 21.105469 4 20 4 Z M 19 8 C 19.253906 8 19.511719 8.097656 19.707031 8.292969 C 20.097656 8.683594 20.097656 9.316406 19.707031 9.707031 L 12.144531 17.265625 C 11.957031 17.457031 11.703125 17.5625 11.4375 17.5625 C 11.175781 17.5625 10.917969 17.457031 10.730469 17.265625 L 7.277344 13.8125 C 6.886719 13.421875 6.886719 12.792969 7.277344 12.398438 C 7.671875 12.007812 8.300781 12.007812 8.691406 12.398438 L 11.4375 15.144531 L 18.292969 8.292969 C 18.488281 8.097656 18.746094 8 19 8 Z M 24 8 L 24 20 C 24 22.210938 22.210938 24 20 24 L 8 24 C 8 25.105469 8.894531 26 10 26 L 24 26 C 25.105469 26 26 25.105469 26 24 L 26 10 C 26 8.894531 25.105469 8 24 8 Z M 24 8 "/>
</g>
</svg>
